<svg width="22" height="20" viewBox="0 0 22 20" fill="none" xmlns="http://www.w3.org/2000/svg">
<circle cx="7.47664" cy="12.5234" r="6.97664" fill="#3E3BDB" fill-opacity="0.8" stroke="#675D5D"/>
<circle cx="11.4019" cy="7.47664" r="6.97664" fill="#199A26" fill-opacity="0.8" stroke="#675D5D"/>
<circle cx="14.2056" cy="12.5234" r="6.97664" fill="#EC4545" fill-opacity="0.8" stroke="#675D5D"/>
<circle cx="11.4019" cy="7.47664" r="6.97664" stroke="#675D5D"/>
<circle cx="7.47664" cy="12.5234" r="6.97664" stroke="#675D5D"/>
<mask id="path-6-inside-1" fill="white">
<path fill-rule="evenodd" clip-rule="evenodd" d="M14.5888 14.2056C14.705 13.6786 14.7664 13.1308 14.7664 12.5686C14.7664 9.63188 13.0935 7.08826 10.6542 5.84955C11.6655 5.33601 12.8085 5.04675 14.0187 5.04675C15.7661 5.04675 17.3735 5.64985 18.6465 6.66042C18.6763 6.93327 18.6916 7.21052 18.6916 7.49136C18.6916 10.4243 17.023 12.9652 14.5888 14.2056Z"/>
</mask>
<path fill-rule="evenodd" clip-rule="evenodd" d="M14.5888 14.2056C14.705 13.6786 14.7664 13.1308 14.7664 12.5686C14.7664 9.63188 13.0935 7.08826 10.6542 5.84955C11.6655 5.33601 12.8085 5.04675 14.0187 5.04675C15.7661 5.04675 17.3735 5.64985 18.6465 6.66042C18.6763 6.93327 18.6916 7.21052 18.6916 7.49136C18.6916 10.4243 17.023 12.9652 14.5888 14.2056Z" fill="#F0D756" fill-opacity="0.8"/>
<path d="M14.5888 14.2056L13.6123 13.9902L13.156 16.0581L15.0428 15.0966L14.5888 14.2056ZM10.6542 5.84955L10.2014 4.95793L8.44561 5.84955L10.2014 6.74118L10.6542 5.84955ZM18.6465 6.66042L19.6406 6.55183L19.5952 6.1368L19.2683 5.87722L18.6465 6.66042ZM13.7664 12.5686C13.7664 13.0579 13.713 13.5335 13.6123 13.9902L15.5653 14.4211C15.6971 13.8238 15.7664 13.2037 15.7664 12.5686H13.7664ZM10.2014 6.74118C12.316 7.81497 13.7664 10.0206 13.7664 12.5686H15.7664C15.7664 9.24321 13.871 6.36155 11.107 4.95793L10.2014 6.74118ZM14.0187 4.04675C12.6474 4.04675 11.3496 4.37486 10.2014 4.95793L11.107 6.74118C11.9814 6.29716 12.9696 6.04675 14.0187 6.04675V4.04675ZM19.2683 5.87722C17.8252 4.73165 16.0004 4.04675 14.0187 4.04675V6.04675C15.5318 6.04675 16.9218 6.56804 18.0247 7.44362L19.2683 5.87722ZM19.6916 7.49136C19.6916 7.17417 19.6743 6.86068 19.6406 6.55183L17.6524 6.76901C17.6783 7.00587 17.6916 7.24686 17.6916 7.49136H19.6916ZM15.0428 15.0966C17.8011 13.691 19.6916 10.8125 19.6916 7.49136H17.6916C17.6916 10.0361 16.2449 12.2393 14.1347 13.3147L15.0428 15.0966Z" fill="#675D5D" mask="url(#path-6-inside-1)"/>
<mask id="path-8-inside-2" fill="white">
<path fill-rule="evenodd" clip-rule="evenodd" d="M14.7757 14.1003C14.892 13.5765 14.9533 13.0319 14.9533 12.4731C14.9533 9.55404 13.2804 7.0257 10.8411 5.79443C8.40181 7.0257 6.72897 9.55404 6.72897 12.4731C6.72897 12.7522 6.74427 13.0278 6.77407 13.299C8.04704 14.3035 9.65445 14.903 11.4019 14.903C12.6158 14.903 13.7621 14.6137 14.7757 14.1003Z"/>
</mask>
<path fill-rule="evenodd" clip-rule="evenodd" d="M14.7757 14.1003C14.892 13.5765 14.9533 13.0319 14.9533 12.4731C14.9533 9.55404 13.2804 7.0257 10.8411 5.79443C8.40181 7.0257 6.72897 9.55404 6.72897 12.4731C6.72897 12.7522 6.74427 13.0278 6.77407 13.299C8.04704 14.3035 9.65445 14.903 11.4019 14.903C12.6158 14.903 13.7621 14.6137 14.7757 14.1003Z" fill="#918484"/>
<path d="M14.7757 14.1003L15.2276 14.9924L15.6495 14.7787L15.7519 14.317L14.7757 14.1003ZM10.8411 5.79443L11.2917 4.90171L10.8411 4.67426L10.3905 4.90171L10.8411 5.79443ZM6.77407 13.299L5.78006 13.4083L5.82581 13.8246L6.15461 14.084L6.77407 13.299ZM13.9533 12.4731C13.9533 12.9586 13.9 13.4305 13.7995 13.8836L15.7519 14.317C15.8839 13.7224 15.9533 13.1053 15.9533 12.4731H13.9533ZM10.3905 6.68715C12.506 7.75498 13.9533 9.94591 13.9533 12.4731H15.9533C15.9533 9.16217 14.0548 6.29642 11.2917 4.90171L10.3905 6.68715ZM10.3905 4.90171C7.6274 6.29642 5.72897 9.16217 5.72897 12.4731H7.72897C7.72897 9.94591 9.17622 7.75498 11.2917 6.68715L10.3905 4.90171ZM5.72897 12.4731C5.72897 12.7888 5.74627 13.1008 5.78006 13.4083L7.76809 13.1898C7.74226 12.9548 7.72897 12.7157 7.72897 12.4731H5.72897ZM6.15461 14.084C7.59771 15.2228 9.42174 15.903 11.4019 15.903V13.903C9.88715 13.903 8.49636 13.3842 7.39354 12.514L6.15461 14.084ZM11.4019 15.903C12.7763 15.903 14.0771 15.5751 15.2276 14.9924L14.3238 13.2082C13.4471 13.6523 12.4552 13.903 11.4019 13.903V15.903Z" fill="#675D5D" mask="url(#path-8-inside-2)"/>
<mask id="path-10-inside-3" fill="white">
<path fill-rule="evenodd" clip-rule="evenodd" d="M14.7306 13.9286C13.717 14.4697 12.5707 14.7746 11.3568 14.7746C9.60935 14.7746 8.00194 14.1428 6.72897 13.0842C7.01083 15.7873 8.58998 18.0788 10.796 19.2524C12.7683 18.2032 14.2396 16.2603 14.7306 13.9286Z"/>
</mask>
<path fill-rule="evenodd" clip-rule="evenodd" d="M14.7306 13.9286C13.717 14.4697 12.5707 14.7746 11.3568 14.7746C9.60935 14.7746 8.00194 14.1428 6.72897 13.0842C7.01083 15.7873 8.58998 18.0788 10.796 19.2524C12.7683 18.2032 14.2396 16.2603 14.7306 13.9286Z" fill="#AA4CC1" fill-opacity="0.8"/>
<path d="M14.7306 13.9286L15.7091 14.1347L16.1509 12.0369L14.2597 13.0465L14.7306 13.9286ZM6.72897 13.0842L7.36839 12.3153L5.47959 10.7445L5.73437 13.1879L6.72897 13.0842ZM10.796 19.2524L10.3264 20.1352L10.796 20.3851L11.2657 20.1352L10.796 19.2524ZM14.2597 13.0465C13.3859 13.5129 12.4008 13.7746 11.3568 13.7746V15.7746C12.7406 15.7746 14.0481 15.4265 15.2015 14.8108L14.2597 13.0465ZM11.3568 13.7746C9.85644 13.7746 8.47241 13.2335 7.36839 12.3153L6.08956 13.853C7.53146 15.0522 9.36225 15.7746 11.3568 15.7746V13.7746ZM5.73437 13.1879C6.05003 16.2152 7.82083 18.8024 10.3264 20.1352L11.2657 18.3695C9.35914 17.3553 7.97162 15.3593 7.72358 12.9805L5.73437 13.1879ZM11.2657 20.1352C13.5061 18.9434 15.1586 16.7487 15.7091 14.1347L13.7521 13.7226C13.3205 15.7718 12.0306 17.463 10.3264 18.3695L11.2657 20.1352Z" fill="#675D5D" mask="url(#path-10-inside-3)"/>
<mask id="path-12-inside-4" fill="white">
<path fill-rule="evenodd" clip-rule="evenodd" d="M7.66355 5.04675C6.44965 5.04675 5.30332 5.33605 4.28973 5.84945C4.17346 6.37329 4.11215 6.91782 4.11215 7.47666C4.11215 9.85847 5.22589 11.9801 6.96099 13.3493C6.93119 13.0781 6.91589 12.8025 6.91589 12.5234C6.91589 9.60434 8.58873 7.07599 11.028 5.84473C10.0168 5.33427 8.87373 5.04675 7.66355 5.04675Z"/>
</mask>
<path fill-rule="evenodd" clip-rule="evenodd" d="M7.66355 5.04675C6.44965 5.04675 5.30332 5.33605 4.28973 5.84945C4.17346 6.37329 4.11215 6.91782 4.11215 7.47666C4.11215 9.85847 5.22589 11.9801 6.96099 13.3493C6.93119 13.0781 6.91589 12.8025 6.91589 12.5234C6.91589 9.60434 8.58873 7.07599 11.028 5.84473C10.0168 5.33427 8.87373 5.04675 7.66355 5.04675Z" fill="#419AAD" fill-opacity="0.8"/>
<path d="M4.28973 5.84945L3.83787 4.95736L3.41596 5.17107L3.31349 5.63277L4.28973 5.84945ZM6.96099 13.3493L6.34153 14.1343L8.21581 15.6134L7.95501 13.2401L6.96099 13.3493ZM11.028 5.84473L11.4787 6.73745L13.2473 5.84473L11.4787 4.95201L11.028 5.84473ZM4.74159 6.74154C5.61833 6.29745 6.61022 6.04675 7.66355 6.04675V4.04675C6.28908 4.04675 4.9883 4.37464 3.83787 4.95736L4.74159 6.74154ZM5.11215 7.47666C5.11215 6.99117 5.1654 6.51929 5.26597 6.06612L3.31349 5.63277C3.18153 6.22729 3.11215 6.84446 3.11215 7.47666H5.11215ZM7.58046 12.5643C6.07533 11.3766 5.11215 9.5394 5.11215 7.47666H3.11215C3.11215 10.1775 4.37645 12.5837 6.34153 14.1343L7.58046 12.5643ZM7.95501 13.2401C7.92918 13.0051 7.91589 12.766 7.91589 12.5234H5.91589C5.91589 12.8391 5.93319 13.1512 5.96698 13.4586L7.95501 13.2401ZM7.91589 12.5234C7.91589 9.99621 9.36314 7.80527 11.4787 6.73745L10.5774 4.95201C7.81432 6.34671 5.91589 9.21246 5.91589 12.5234H7.91589ZM7.66355 6.04675C8.71367 6.04675 9.70269 6.29592 10.5774 6.73745L11.4787 4.95201C10.3308 4.37263 9.0338 4.04675 7.66355 4.04675V6.04675Z" fill="#675D5D" mask="url(#path-12-inside-4)"/>
<path d="M12.2608 9.23035V11.6473C12.2592 11.9826 12.1534 12.2569 11.9435 12.4701C11.7351 12.6833 11.4519 12.8029 11.0938 12.829L10.9693 12.8339C10.5803 12.8339 10.2703 12.7289 10.0392 12.5189C9.80803 12.309 9.69085 12.0201 9.68759 11.6522V9.23035H10.1515V11.6376C10.1515 11.8947 10.2223 12.0949 10.3639 12.2382C10.5055 12.3798 10.7073 12.4506 10.9693 12.4506C11.2346 12.4506 11.4373 12.3798 11.5772 12.2382C11.7188 12.0966 11.7896 11.8972 11.7896 11.64V9.23035H12.2608Z" fill="white"/>
</svg>
