<svg width="116" height="107" viewBox="0 0 116 107" fill="none" xmlns="http://www.w3.org/2000/svg">
<circle cx="40" cy="67" r="39.5" fill="#3E3BDB" fill-opacity="0.8" stroke="#675D5D"/>
<circle cx="61" cy="40" r="39.5" fill="#199A26" fill-opacity="0.8" stroke="#675D5D"/>
<circle cx="76" cy="67" r="39.5" fill="#EC4545" fill-opacity="0.8" stroke="#675D5D"/>
<circle cx="61" cy="40" r="39.5" stroke="#675D5D"/>
<circle cx="40" cy="67" r="39.5" stroke="#675D5D"/>
<mask id="path-6-inside-1" fill="white">
<path fill-rule="evenodd" clip-rule="evenodd" d="M78.05 76C78.672 73.1805 79 70.2497 79 67.2418C79 51.5305 70.0503 37.9221 57 31.295C62.4104 28.5475 68.5256 27 75 27C84.3487 27 92.9484 30.2265 99.7587 35.6331C99.9182 37.0929 100 38.5761 100 40.0786C100 55.7699 91.0731 69.3636 78.05 76Z"/>
</mask>
<path fill-rule="evenodd" clip-rule="evenodd" d="M78.05 76C78.672 73.1805 79 70.2497 79 67.2418C79 51.5305 70.0503 37.9221 57 31.295C62.4104 28.5475 68.5256 27 75 27C84.3487 27 92.9484 30.2265 99.7587 35.6331C99.9182 37.0929 100 38.5761 100 40.0786C100 55.7699 91.0731 69.3636 78.05 76Z" fill="#F0D756" fill-opacity="0.8"/>
<path d="M78.05 76L77.0734 75.7846L76.6172 77.8524L78.504 76.891L78.05 76ZM57 31.295L56.5472 30.4033L54.7914 31.295L56.5472 32.1866L57 31.295ZM99.7587 35.6331L100.753 35.5245L100.707 35.1095L100.38 34.8499L99.7587 35.6331ZM78 67.2418C78 70.1768 77.6799 73.0354 77.0734 75.7846L79.0265 76.2154C79.664 73.3256 80 70.3226 80 67.2418H78ZM56.5472 32.1866C69.2728 38.6488 78 51.9191 78 67.2418H80C80 51.1418 70.8278 37.1953 57.4528 30.4033L56.5472 32.1866ZM75 26C68.3644 26 62.0945 27.5864 56.5472 30.4033L57.4528 32.1866C62.7262 29.5087 68.6867 28 75 28V26ZM100.38 34.8499C93.4001 29.3083 84.583 26 75 26V28C84.1144 28 92.4966 31.1447 99.1369 36.4163L100.38 34.8499ZM101 40.0786C101 38.5398 100.916 37.0203 100.753 35.5245L98.7646 35.7417C98.9201 37.1654 99 38.6124 99 40.0786H101ZM78.504 76.891C91.8512 70.0894 101 56.1581 101 40.0786H99C99 55.3817 90.2951 68.6377 77.5959 75.109L78.504 76.891Z" fill="#675D5D" mask="url(#path-6-inside-1)"/>
<mask id="path-8-inside-2" fill="white">
<path fill-rule="evenodd" clip-rule="evenodd" d="M79.05 75.4364C79.672 72.6339 80 69.7206 80 66.7308C80 51.1139 71.0503 37.5873 58 31C44.9497 37.5873 36 51.1139 36 66.7308C36 68.2243 36.0818 69.6986 36.2413 71.1496C43.0517 76.5237 51.6513 79.7308 61 79.7308C67.4944 79.7308 73.6273 78.1831 79.05 75.4364Z"/>
</mask>
<path fill-rule="evenodd" clip-rule="evenodd" d="M79.05 75.4364C79.672 72.6339 80 69.7206 80 66.7308C80 51.1139 71.0503 37.5873 58 31C44.9497 37.5873 36 51.1139 36 66.7308C36 68.2243 36.0818 69.6986 36.2413 71.1496C43.0517 76.5237 51.6513 79.7308 61 79.7308C67.4944 79.7308 73.6273 78.1831 79.05 75.4364Z" fill="#918484"/>
<path d="M79.05 75.4364L79.5018 76.3285L79.9237 76.1148L80.0262 75.6531L79.05 75.4364ZM58 31L58.4506 30.1073L58 29.8798L57.5494 30.1073L58 31ZM36.2413 71.1496L35.2473 71.2588L35.293 71.6752L35.6218 71.9346L36.2413 71.1496ZM79 66.7308C79 69.6473 78.68 72.4879 78.0737 75.2197L80.0262 75.6531C80.6639 72.7799 81 69.794 81 66.7308H79ZM57.5494 31.8927C70.2759 38.3165 79 51.5058 79 66.7308H81C81 50.722 71.8247 36.858 58.4506 30.1073L57.5494 31.8927ZM57.5494 30.1073C44.1753 36.858 35 50.722 35 66.7308H37C37 51.5058 45.7241 38.3165 58.4506 31.8927L57.5494 30.1073ZM35 66.7308C35 68.2609 35.0839 69.7717 35.2473 71.2588L37.2353 71.0404C37.0798 69.6256 37 68.1877 37 66.7308H35ZM35.6218 71.9346C42.6023 77.443 51.4186 80.7308 61 80.7308V78.7308C51.884 78.7308 43.501 75.6044 36.8608 70.3646L35.6218 71.9346ZM61 80.7308C67.655 80.7308 73.9423 79.1445 79.5018 76.3285L78.5981 74.5443C73.3123 77.2217 67.3338 78.7308 61 78.7308V80.7308Z" fill="#675D5D" mask="url(#path-8-inside-2)"/>
<mask id="path-10-inside-3" fill="white">
<path fill-rule="evenodd" clip-rule="evenodd" d="M78.8087 74.5179C73.386 77.4127 67.2531 79.0438 60.7587 79.0438C51.41 79.0438 42.8104 75.6638 36 70C37.5079 84.4615 45.9564 96.7215 57.7587 103C68.3106 97.3867 76.1816 86.9922 78.8087 74.5179Z"/>
</mask>
<path fill-rule="evenodd" clip-rule="evenodd" d="M78.8087 74.5179C73.386 77.4127 67.2531 79.0438 60.7587 79.0438C51.41 79.0438 42.8104 75.6638 36 70C37.5079 84.4615 45.9564 96.7215 57.7587 103C68.3106 97.3867 76.1816 86.9922 78.8087 74.5179Z" fill="#AA4CC1" fill-opacity="0.8"/>
<path d="M78.8087 74.5179L79.7872 74.724L80.229 72.6261L78.3377 73.6357L78.8087 74.5179ZM36 70L36.6394 69.2311L34.7506 67.6603L35.0054 70.1037L36 70ZM57.7587 103L57.2891 103.883L57.7587 104.133L58.2284 103.883L57.7587 103ZM78.3377 73.6357C73.0549 76.4558 67.0832 78.0438 60.7587 78.0438V80.0438C67.423 80.0438 73.717 78.3695 79.2796 75.4001L78.3377 73.6357ZM60.7587 78.0438C51.6571 78.0438 43.2808 74.7544 36.6394 69.2311L35.3606 70.7689C42.3399 76.5731 51.1629 80.0438 60.7587 80.0438V78.0438ZM35.0054 70.1037C36.5471 84.8895 45.1872 97.4451 57.2891 103.883L58.2284 102.117C46.7255 95.998 38.4687 84.0336 36.9946 69.8963L35.0054 70.1037ZM58.2284 103.883C69.0483 98.1269 77.1007 87.4807 79.7872 74.724L77.8301 74.3118C75.2626 86.5038 67.5728 96.6465 57.2891 102.117L58.2284 103.883Z" fill="#675D5D" mask="url(#path-10-inside-3)"/>
<mask id="path-12-inside-4" fill="white">
<path fill-rule="evenodd" clip-rule="evenodd" d="M41 27C34.5056 27 28.3727 28.5477 22.95 31.2944C22.328 34.097 22 37.0102 22 40C22 52.7427 27.9585 64.0937 37.2413 71.4188C37.0818 69.9678 37 68.4935 37 67C37 51.3831 45.9497 37.8564 59 31.2692C53.5896 28.5382 47.4744 27 41 27Z"/>
</mask>
<path fill-rule="evenodd" clip-rule="evenodd" d="M41 27C34.5056 27 28.3727 28.5477 22.95 31.2944C22.328 34.097 22 37.0102 22 40C22 52.7427 27.9585 64.0937 37.2413 71.4188C37.0818 69.9678 37 68.4935 37 67C37 51.3831 45.9497 37.8564 59 31.2692C53.5896 28.5382 47.4744 27 41 27Z" fill="#419AAD" fill-opacity="0.8"/>
<path d="M22.95 31.2944L22.4982 30.4023L22.0763 30.616L21.9738 31.0778L22.95 31.2944ZM37.2413 71.4188L36.6218 72.2038L38.4961 73.6828L38.2353 71.3095L37.2413 71.4188ZM59 31.2692L59.4506 32.1619L61.2192 31.2692L59.4506 30.3764L59 31.2692ZM23.4019 32.1865C28.6877 29.5091 34.6662 28 41 28V26C34.345 26 28.0577 27.5863 22.4982 30.4023L23.4019 32.1865ZM23 40C23 37.0835 23.32 34.243 23.9263 31.5111L21.9738 31.0778C21.3361 33.951 21 36.9368 21 40H23ZM37.8608 70.6337C28.8079 63.4901 23 52.4236 23 40H21C21 53.0617 27.1091 64.6972 36.6218 72.2038L37.8608 70.6337ZM38.2353 71.3095C38.0798 69.8948 38 68.4569 38 67H36C36 68.53 36.0839 70.0408 36.2473 71.528L38.2353 71.3095ZM38 67C38 51.7749 46.7241 38.5857 59.4506 32.1619L58.5494 30.3764C45.1753 37.1271 36 50.9912 36 67H38ZM41 28C47.3144 28 53.2756 29.4999 58.5494 32.1619L59.4506 30.3764C53.9037 27.5766 47.6345 26 41 26V28Z" fill="#675D5D" mask="url(#path-12-inside-4)"/>
<path d="M63.9922 51.9375V63.5391C63.9844 65.1484 63.4766 66.4648 62.4688 67.4883C61.4688 68.5117 60.1094 69.0859 58.3906 69.2109L57.793 69.2344C55.9258 69.2344 54.4375 68.7305 53.3281 67.7227C52.2188 66.7148 51.6562 65.3281 51.6406 63.5625V51.9375H53.8672V63.4922C53.8672 64.7266 54.207 65.6875 54.8867 66.375C55.5664 67.0547 56.5352 67.3945 57.793 67.3945C59.0664 67.3945 60.0391 67.0547 60.7109 66.375C61.3906 65.6953 61.7305 64.7383 61.7305 63.5039V51.9375H63.9922Z" fill="white"/>
</svg>
