<svg width="19" height="19" viewBox="0 0 19 19" fill="none" xmlns="http://www.w3.org/2000/svg">
<path d="M9.49997 0C4.26168 0 0 4.26168 0 9.49997C0 14.7383 4.26168 18.9999 9.49997 18.9999C11.9672 18.9999 14.3051 18.0585 16.0832 16.3491C16.2372 16.2011 16.242 15.9563 16.094 15.8024C15.9461 15.6485 15.7013 15.6437 15.5473 15.7917C13.9141 17.3619 11.7664 18.2266 9.50003 18.2266C4.68809 18.2267 0.773293 14.3119 0.773293 9.49997C0.773293 4.68802 4.68809 0.773293 9.49997 0.773293C14.3118 0.773293 18.2266 4.68809 18.2266 9.49997C18.2266 10.5853 18.03 11.6441 17.6421 12.6469C17.5651 12.8461 17.6641 13.07 17.8633 13.1471C18.0625 13.224 18.2863 13.1251 18.3634 12.9259C18.7858 11.8337 19 10.681 19 9.4999C19 4.26168 14.7383 0 9.49997 0Z" fill="#E05050"/>
<path d="M10.8015 10.3192C10.6488 10.1697 10.4041 10.1724 10.2547 10.325C10.1054 10.4776 10.108 10.7224 10.2605 10.8717L13.3045 13.8512C13.3798 13.9249 13.4774 13.9616 13.5749 13.9616C13.6753 13.9616 13.7755 13.9227 13.8513 13.8454C14.0006 13.6928 13.998 13.448 13.8455 13.2986L10.8015 10.3192Z" fill="#E05050"/>
<path d="M8.06656 8.6134C8.14202 8.68886 8.241 8.72662 8.33999 8.72662C8.43897 8.72662 8.53788 8.68886 8.61341 8.6134C8.76439 8.46242 8.76439 8.2176 8.61341 8.06662L5.69835 5.15157C5.54737 5.00058 5.30249 5.00058 5.15157 5.15157C5.00058 5.30255 5.00058 5.54737 5.15157 5.69835L8.06656 8.6134Z" fill="#E05050"/>
<path d="M13.8484 5.15157C13.6974 5.00058 13.4525 5.00058 13.3016 5.15157L5.15157 13.3016C5.00058 13.4526 5.00058 13.6974 5.15157 13.8484C5.22703 13.9239 5.32601 13.9616 5.42499 13.9616C5.52397 13.9616 5.62289 13.9239 5.69841 13.8484L13.8484 5.69842C13.9994 5.54737 13.9994 5.30262 13.8484 5.15157Z" fill="#E05050"/>
</svg>
